<svg width="202" height="60" viewBox="0 0 202 60" fill="none" xmlns="http://www.w3.org/2000/svg">
<path d="M25.959 0C33.6624 0.573981 39.4513 3.06153 43.5986 6.63672C47.7457 10.2119 50.2501 14.8734 51.3887 19.79C53.6613 29.6048 50.4929 40.4469 44.0811 45.7197L55.8066 59.7334L55.8613 59.7998H32.1348L32.1221 59.7852L26.1963 52.5391L20.1113 59.7852L20.0996 59.7998H0V25.6709C0.886436 15.5827 5.39668 9.1999 10.6758 5.32227C15.9531 1.44611 21.9977 0.0740426 25.9551 0H25.959ZM25.9961 9.45703C16.684 9.45726 9.13487 17.0062 9.13477 26.3184C9.13488 35.6295 25.7108 52.5522 26.2783 52.5566C26.8482 52.5501 44.346 35.7735 42.8574 26.3184C42.8573 17.0061 35.3084 9.45703 25.9961 9.45703ZM25.9961 17.1035C31.0856 17.1035 35.2118 21.2289 35.2119 26.3184C35.2119 31.4079 31.0856 35.5342 25.9961 35.5342C20.9068 35.5339 16.7813 31.4077 16.7812 26.3184C16.7814 21.229 20.9068 17.1038 25.9961 17.1035Z" fill="#DA362A"/>
<path d="M66.6554 52.4941V16.644H79.434C82.2115 16.644 84.5163 17.1225 86.3485 18.0794C88.1923 19.0363 89.5694 20.3609 90.4797 22.053C91.3899 23.7335 91.845 25.6765 91.845 27.8822C91.845 30.0761 91.3841 32.0075 90.4622 33.6763C89.5519 35.3334 88.1748 36.623 86.331 37.5449C84.4988 38.4668 82.194 38.9278 79.4165 38.9278H69.7363V34.2715H78.9264C80.6769 34.2715 82.1006 34.0206 83.1976 33.5188C84.3062 33.017 85.1173 32.2876 85.6308 31.3306C86.1443 30.3737 86.401 29.2242 86.401 27.8822C86.401 26.5285 86.1384 25.3556 85.6133 24.3637C85.0998 23.3717 84.2887 22.6132 83.1801 22.088C82.0831 21.5512 80.6419 21.2828 78.8564 21.2828H72.0644V52.4941H66.6554ZM84.3529 36.3196L93.2104 52.4941H87.0487L78.3662 36.3196H84.3529ZM112.574 41.3435V25.6065H117.826V52.4941H112.679V47.8378H112.399C111.781 49.2732 110.789 50.4694 109.424 51.4263C108.07 52.3716 106.383 52.8442 104.365 52.8442C102.637 52.8442 101.109 52.465 99.7783 51.7064C98.4596 50.9362 97.421 49.7984 96.6624 48.293C95.9155 46.7875 95.5421 44.9262 95.5421 42.7089V25.6065H100.776V42.0787C100.776 43.9109 101.284 45.3696 102.299 46.4549C103.314 47.5402 104.633 48.0829 106.255 48.0829C107.235 48.0829 108.21 47.8378 109.178 47.3477C110.159 46.8575 110.97 46.1165 111.612 45.1246C112.265 44.1326 112.586 42.8722 112.574 41.3435ZM134.945 25.6065V29.8077H120.258V25.6065H134.945ZM124.197 19.1647H129.431V44.5994C129.431 45.6147 129.583 46.3791 129.886 46.8926C130.189 47.3944 130.58 47.7386 131.059 47.9253C131.549 48.1004 132.08 48.1879 132.652 48.1879C133.072 48.1879 133.439 48.1587 133.755 48.1004C134.07 48.042 134.315 47.9954 134.49 47.9604L135.435 52.2841C135.132 52.4008 134.7 52.5175 134.14 52.6342C133.579 52.7625 132.879 52.8326 132.039 52.8442C130.662 52.8676 129.378 52.6225 128.188 52.109C126.998 51.5956 126.035 50.802 125.3 49.7284C124.564 48.6547 124.197 47.3068 124.197 45.6847V19.1647ZM149.569 53.0368C146.92 53.0368 144.639 52.4708 142.725 51.3388C140.823 50.1952 139.352 48.5905 138.314 46.525C137.287 44.4477 136.773 42.0145 136.773 39.2254C136.773 36.4713 137.287 34.0439 138.314 31.9433C139.352 29.8427 140.799 28.2031 142.655 27.0244C144.522 25.8458 146.704 25.2564 149.202 25.2564C150.719 25.2564 152.189 25.5073 153.613 26.0091C155.037 26.5109 156.315 27.2987 157.447 28.3723C158.579 29.4459 159.471 30.8405 160.125 32.556C160.778 34.2598 161.105 36.3312 161.105 38.7703V40.6258H139.732V36.7047H155.976C155.976 35.3276 155.696 34.1081 155.136 33.0461C154.576 31.9725 153.788 31.1264 152.773 30.5079C151.769 29.8894 150.591 29.5802 149.237 29.5802C147.766 29.5802 146.483 29.9419 145.386 30.6655C144.3 31.3773 143.46 32.3109 142.865 33.4663C142.281 34.6099 141.99 35.8528 141.99 37.1948V40.2582C141.99 42.0554 142.305 43.5841 142.935 44.8445C143.577 46.1048 144.47 47.0676 145.613 47.7328C146.757 48.3863 148.093 48.7131 149.622 48.7131C150.614 48.7131 151.518 48.573 152.335 48.293C153.152 48.0012 153.858 47.5694 154.453 46.9976C155.048 46.4258 155.504 45.7197 155.819 44.8795L160.773 45.7722C160.376 47.231 159.664 48.5088 158.637 49.6058C157.622 50.6911 156.344 51.5372 154.803 52.144C153.275 52.7392 151.53 53.0368 149.569 53.0368ZM164.448 52.4941V25.6065H169.682V52.4941H164.448ZM167.091 21.4578C166.181 21.4578 165.399 21.1544 164.745 20.5476C164.103 19.9291 163.783 19.1939 163.783 18.342C163.783 17.4784 164.103 16.7432 164.745 16.1363C165.399 15.5178 166.181 15.2086 167.091 15.2086C168.001 15.2086 168.777 15.5178 169.419 16.1363C170.073 16.7432 170.399 17.4784 170.399 18.342C170.399 19.1939 170.073 19.9291 169.419 20.5476C168.777 21.1544 168.001 21.4578 167.091 21.4578ZM179.492 36.5296V52.4941H174.258V25.6065H179.282V29.9828H179.615C180.233 28.559 181.202 27.4154 182.521 26.5518C183.851 25.6882 185.526 25.2564 187.545 25.2564C189.377 25.2564 190.981 25.6415 192.359 26.4118C193.736 27.1703 194.803 28.3023 195.562 29.8077C196.32 31.3131 196.7 33.1745 196.7 35.3918V52.4941H191.466V36.022C191.466 34.0731 190.958 32.5502 189.943 31.4532C188.928 30.3445 187.533 29.7902 185.759 29.7902C184.545 29.7902 183.466 30.0528 182.521 30.5779C181.587 31.1031 180.846 31.8733 180.298 32.8886C179.761 33.8922 179.492 35.1059 179.492 36.5296Z" fill="#DA362A"/>
</svg>
